<?xml version="1.0" standalone="no"?>
<!DOCTYPE svg PUBLIC "-//W3C//DTD SVG 20010904//EN"
 "http://www.w3.org/TR/2001/REC-SVG-20010904/DTD/svg10.dtd">
<svg version="1.0" xmlns="http://www.w3.org/2000/svg"
 width="800.000000pt" height="800.000000pt" viewBox="0 0 800.000000 800.000000"
 preserveAspectRatio="xMidYMid meet">
<metadata>
Created by potrace 1.14, written by Peter Selinger 2001-2017
</metadata>
<g transform="translate(0.000000,800.000000) scale(0.100000,-0.100000)"
fill="#000000" stroke="none">
<path d="M3875 7461 c-6 -11 77 -26 97 -18 7 3 -2 6 -19 6 -18 1 -33 6 -33 11
0 13 -37 13 -45 1z"/>
<path d="M3975 7432 c-30 -10 -66 -15 -90 -12 -40 5 -50 3 -92 -18 -17 -9 -24
-8 -33 3 -11 13 -16 12 -44 -3 -17 -9 -42 -25 -55 -34 -13 -10 -34 -18 -46
-18 -12 0 -25 -3 -29 -7 -4 -4 -32 -8 -63 -9 -36 -1 -61 -7 -67 -16 -6 -8 -20
-17 -30 -21 -10 -4 -16 -10 -13 -14 11 -10 -14 -33 -37 -33 -27 -1 -53 -21
-58 -45 -1 -11 -18 -30 -35 -43 -18 -12 -33 -27 -33 -33 0 -5 -12 -8 -27 -7
-23 3 -28 -1 -34 -31 -7 -36 -42 -70 -70 -71 -9 0 -19 -3 -23 -7 -4 -5 -12 -9
-17 -9 -5 -1 -14 -2 -19 -3 -7 -1 -7 -8 -2 -18 11 -23 10 -43 -3 -44 -17 -1
-46 -32 -41 -45 3 -8 -7 -11 -37 -7 l-42 4 29 -16 c23 -14 33 -15 51 -5 13 7
25 20 28 30 3 13 20 18 78 24 40 3 76 10 79 14 9 12 41 14 55 2 9 -8 14 -7 19
5 3 8 17 15 31 15 25 0 31 2 90 33 27 14 100 22 263 31 31 2 60 10 71 20 9 9
21 13 26 9 4 -5 5 0 2 9 -6 17 3 18 116 13 207 -9 327 -23 327 -36 0 -5 7 -9
15 -9 8 0 29 -9 47 -20 18 -11 47 -20 64 -20 17 0 47 -6 65 -13 19 -6 63 -12
99 -12 36 0 68 -4 71 -9 4 -5 26 -10 50 -12 24 -2 45 -8 47 -14 2 -5 20 -10
40 -10 21 0 46 -7 56 -15 11 -8 26 -15 33 -15 8 0 29 -7 49 -15 19 -8 38 -15
42 -15 4 -1 11 -8 15 -16 5 -8 13 -12 18 -8 6 3 16 -1 22 -10 7 -9 24 -20 39
-24 72 -19 348 -309 348 -366 0 -8 5 -18 11 -21 11 -7 58 -106 80 -170 8 -22
16 -42 19 -45 15 -14 41 -62 36 -67 -3 -3 3 -18 14 -33 11 -16 20 -34 20 -42
0 -8 9 -24 20 -36 11 -12 20 -33 20 -48 0 -15 7 -36 17 -46 9 -10 13 -21 9
-25 -4 -4 -11 -1 -16 7 -6 9 -10 10 -10 3 0 -7 8 -16 18 -22 15 -9 15 -13 4
-31 -11 -18 -11 -24 0 -33 20 -17 40 -67 27 -67 -6 0 -9 -10 -8 -22 7 -73 -32
-129 -66 -94 -16 15 -20 36 -7 36 7 0 7 119 -1 127 -10 10 -58 -10 -53 -23 3
-7 -4 -16 -15 -19 -10 -4 -17 -10 -14 -15 3 -4 -1 -13 -9 -19 -18 -15 -42 35
-26 55 7 7 10 23 8 36 -2 18 -12 25 -48 32 -25 5 -50 17 -57 25 -11 14 -12 14
-13 -1 0 -10 -3 -18 -6 -18 -4 0 -13 8 -20 18 -20 28 -37 3 -22 -34 20 -53 7
-66 -62 -62 -43 2 -60 -1 -60 -9 0 -7 6 -13 13 -13 23 0 77 -31 77 -43 0 -7 9
-1 19 12 16 21 19 21 24 6 10 -23 0 -35 -29 -35 -13 0 -33 -6 -44 -12 -16 -11
-22 -9 -34 7 -8 11 -18 17 -22 12 -4 -4 -2 -7 5 -7 7 0 9 -4 6 -10 -3 -5 -1
-10 5 -10 7 0 8 -5 1 -17 -6 -12 -5 -20 7 -29 13 -10 14 -15 4 -27 -15 -18
-52 -29 -52 -16 0 15 -16 11 -54 -13 -19 -13 -35 -29 -36 -35 0 -7 -11 -13
-24 -13 -13 0 -29 -7 -36 -15 -8 -10 -30 -15 -64 -15 -29 0 -57 -5 -63 -11 -7
-7 -39 -11 -75 -11 -35 1 -76 -5 -93 -13 -34 -15 -87 -36 -95 -37 -3 0 -14 -5
-25 -11 -11 -6 -30 -10 -42 -8 -13 1 -43 -11 -68 -28 -26 -17 -50 -31 -54 -31
-5 0 -19 -9 -33 -19 -13 -11 -41 -22 -61 -26 -20 -4 -37 -11 -37 -15 0 -15
-39 -21 -59 -11 -13 8 -22 8 -26 1 -3 -6 -17 -7 -31 -4 -20 5 -24 2 -24 -14 0
-12 5 -24 11 -28 6 -3 -2 -14 -20 -25 -25 -15 -51 -19 -120 -19 -87 0 -90 1
-115 31 -14 17 -26 34 -26 39 0 11 -43 21 -50 11 -3 -5 -32 4 -65 20 -33 16
-72 29 -86 29 -14 0 -34 7 -45 15 -10 8 -29 15 -40 15 -12 0 -39 7 -60 16 -34
14 -66 21 -184 39 -80 12 -337 1 -355 -16 -5 -6 -3 -9 6 -9 8 0 20 -9 27 -20
6 -11 18 -17 26 -14 8 3 17 1 21 -5 3 -6 -1 -14 -9 -17 -21 -8 -20 -24 2 -40
20 -16 62 -18 62 -4 0 18 16 10 17 -8 1 -11 -5 -18 -15 -18 -90 0 -123 -16
-64 -30 33 -9 115 -58 107 -65 -3 -3 5 -5 18 -5 33 1 37 -48 5 -65 -13 -7 -25
-13 -28 -13 -3 -1 -4 -4 -3 -8 5 -13 -79 -48 -112 -48 -17 0 -41 -9 -53 -20
-12 -11 -28 -20 -36 -20 -8 0 -19 -6 -23 -13 -12 -19 -63 -38 -83 -32 -36 11
-46 -25 -37 -130 3 -27 5 -57 6 -65 1 -12 14 -14 66 -12 59 3 65 5 53 20 -11
14 -10 15 7 7 11 -4 40 -9 63 -10 48 -2 64 14 44 46 -15 24 -15 42 -1 33 6 -3
15 0 20 7 6 10 9 9 14 -6 24 -70 32 -79 72 -77 22 2 57 -5 86 -18 51 -23 62
-34 22 -24 -21 5 -25 3 -24 -17 0 -13 3 -19 5 -12 3 7 16 10 32 7 20 -4 33 0
47 17 11 12 14 19 8 15 -18 -10 -16 9 2 24 10 8 33 11 65 8 53 -5 75 7 64 36
-4 11 -1 16 10 16 9 0 16 4 16 9 0 5 13 14 30 19 21 8 34 22 45 50 13 30 25
43 55 55 26 10 43 25 50 41 7 20 17 26 39 26 21 0 30 6 34 21 3 12 10 18 15
15 17 -10 42 5 42 26 0 12 4 16 11 12 8 -5 10 -30 6 -78 -15 -183 -91 -339
-199 -410 -54 -35 -189 -64 -343 -73 -154 -9 -423 -2 -462 11 -18 7 -23 5 -23
-8 0 -12 10 -16 48 -16 26 0 53 -5 59 -11 15 -15 310 -28 428 -19 103 9 257
40 298 61 12 6 46 30 75 52 29 22 54 38 57 36 2 -3 8 -16 13 -29 9 -23 11 -21
42 39 18 36 43 101 56 145 58 194 97 246 183 246 64 0 105 -36 116 -100 4 -25
13 -55 21 -68 19 -29 24 -105 10 -134 -15 -30 -8 -69 12 -75 10 -2 25 -24 35
-48 10 -24 30 -56 43 -71 32 -34 46 -71 38 -97 -9 -28 15 -70 33 -56 10 9 13
7 13 -9 0 -12 9 -27 19 -35 20 -13 20 -13 1 -43 -24 -35 -25 -44 -5 -44 8 0
15 -4 15 -10 0 -5 7 -10 15 -10 9 0 12 -6 9 -15 -5 -12 -10 -13 -20 -4 -11 9
-14 8 -14 -5 0 -9 -4 -16 -8 -16 -5 0 -18 -8 -30 -18 -12 -10 -32 -18 -44 -17
-13 1 -26 -3 -30 -9 -4 -6 -12 -12 -18 -12 -5 -1 -14 -2 -20 -3 -5 0 -10 -11
-10 -23 0 -16 -3 -19 -8 -10 -11 17 -37 6 -57 -25 -9 -13 -19 -22 -22 -19 -3
3 -17 -3 -30 -14 -14 -11 -40 -22 -59 -26 -33 -6 -34 -8 -34 -50 0 -32 4 -44
15 -44 8 0 15 -9 15 -19 0 -21 26 -36 35 -20 10 16 22 1 29 -36 4 -20 11 -33
16 -30 5 3 12 0 15 -5 4 -6 18 -15 32 -21 13 -5 22 -13 19 -17 -3 -5 6 -15 20
-23 20 -10 25 -19 22 -41 -3 -15 -1 -25 3 -22 4 2 10 0 14 -5 3 -6 13 -7 21
-4 13 5 15 -1 12 -28 -3 -33 -2 -34 30 -31 27 3 34 -1 42 -22 10 -27 43 -36
55 -15 4 6 19 9 33 8 39 -3 83 11 75 24 -4 6 0 8 10 4 24 -9 44 20 29 43 -13
21 0 36 20 24 7 -5 8 -3 3 6 -6 9 0 10 24 5 28 -6 33 -4 38 14 4 17 10 20 32
15 14 -4 31 -11 38 -16 7 -5 21 -7 33 -3 16 5 19 12 13 33 -3 15 -11 30 -17
34 -7 5 2 13 22 20 28 11 32 16 29 43 -2 16 -6 37 -9 45 -4 8 -9 28 -12 43 -4
15 -11 25 -16 22 -5 -3 -11 -1 -15 4 -3 6 -12 8 -20 4 -11 -4 -15 3 -15 26 0
21 5 31 15 31 9 0 15 9 15 25 0 14 -4 25 -9 25 -6 0 -13 21 -17 46 -4 26 -15
55 -25 65 -20 20 -26 59 -9 59 6 0 10 5 10 10 0 6 -7 10 -15 10 -8 0 -15 5
-15 11 0 12 34 4 67 -17 34 -22 69 -18 78 9 6 19 8 20 12 4 3 -10 17 -23 31
-29 16 -6 22 -12 15 -15 -23 -8 -14 -20 12 -15 14 2 25 8 25 13 0 18 38 8 53
-13 12 -18 19 -21 33 -12 30 18 27 48 -7 63 l-31 13 27 18 c21 14 23 18 11 23
-24 9 -20 30 4 24 20 -5 44 11 53 35 4 10 7 11 18 1 21 -21 60 -15 85 12 20
22 26 23 56 13 18 -6 39 -16 47 -22 11 -9 13 -7 8 9 -5 16 0 23 21 32 45 19
84 20 80 2 -2 -7 9 -15 25 -20 20 -5 27 -4 27 6 0 16 57 38 65 24 4 -5 10 -7
14 -4 8 4 31 -37 31 -55 0 -19 -28 -10 -33 10 -9 33 -27 22 -27 -16 0 -33 2
-36 25 -32 21 4 25 1 25 -18 0 -31 16 -39 25 -11 6 21 7 21 17 -6 6 -17 23
-33 45 -42 47 -20 66 -19 88 5 10 11 25 20 34 20 14 -1 13 -3 -2 -14 -19 -14
-7 -33 13 -21 6 4 10 -10 10 -34 0 -36 -3 -40 -30 -46 -16 -4 -34 -4 -40 0 -5
3 -20 0 -32 -6 -13 -7 -38 -12 -55 -10 -32 2 -38 -5 -34 -37 1 -8 -2 -19 -8
-26 -8 -10 -5 -12 11 -11 12 1 24 7 26 13 2 7 20 12 40 12 33 0 34 1 16 14
-21 16 -19 22 11 28 15 2 20 -2 18 -16 -2 -24 40 -70 58 -64 23 9 49 -11 49
-37 0 -13 -4 -26 -9 -30 -5 -3 2 -17 15 -30 31 -31 48 -19 59 43 4 23 11 44
16 48 5 3 9 15 9 26 0 12 8 30 17 40 13 14 15 23 7 36 -11 17 7 80 20 75 9 -4
10 -1 2 52 -3 28 -17 69 -30 91 -20 36 -21 41 -6 37 13 -3 19 3 23 26 4 17 4
38 1 46 -7 17 -24 20 -24 5 0 -5 -6 -10 -14 -10 -17 0 -18 38 -3 58 7 9 6 17
-1 24 -16 16 -15 28 3 28 8 0 15 4 15 10 0 14 -35 30 -64 30 -14 0 -26 3 -26
8 0 24 43 158 53 164 14 8 15 37 17 266 1 150 0 166 -20 199 -17 29 -22 57
-26 147 -4 99 -7 129 -20 201 -3 11 -11 67 -19 125 -8 58 -20 117 -25 131 -6
14 -12 35 -13 47 -1 12 -7 22 -13 22 -7 0 -10 8 -7 18 2 10 -8 35 -22 56 -16
24 -25 49 -23 66 1 16 -5 34 -16 45 -14 14 -17 27 -12 57 4 23 2 38 -4 38 -6
0 -16 11 -22 25 -6 14 -15 25 -20 25 -5 0 -6 -4 -3 -10 3 -6 -1 -7 -9 -4 -9 3
-13 10 -10 16 10 15 -7 107 -22 123 -8 7 -14 23 -14 35 0 16 -5 20 -22 18 -16
-2 -27 7 -47 44 -27 48 -63 88 -80 88 -5 0 -11 7 -15 15 -3 8 -12 15 -19 15
-10 0 -13 8 -9 25 4 22 -2 27 -42 45 -25 10 -46 26 -46 34 0 24 -22 66 -34 66
-13 0 -47 36 -40 43 2 2 -2 10 -11 17 -8 7 -15 19 -15 27 0 9 -6 13 -14 10 -8
-3 -17 1 -20 9 -3 8 -12 14 -20 14 -9 0 -13 6 -10 15 12 29 -61 95 -106 95
-10 0 -25 10 -33 23 -14 19 -16 19 -16 4 -1 -15 -3 -16 -17 -5 -40 32 -144
139 -144 148 0 6 -7 10 -15 10 -8 0 -15 6 -15 13 0 8 -22 19 -56 27 -32 8 -59
21 -65 31 -5 10 -26 23 -46 31 -40 13 -45 14 -108 17 -33 1 -49 9 -87 46 -27
25 -48 50 -48 56 0 6 -6 9 -12 6 -7 -2 -22 0 -32 6 -11 5 -38 11 -60 12 -23 2
-63 10 -91 19 -59 19 -48 19 -110 -2z m1397 -1617 c3 -14 1 -25 -3 -25 -5 0
-9 11 -9 25 0 14 2 25 4 25 2 0 6 -11 8 -25z m-82 -108 c0 -4 -6 -2 -14 5 -8
7 -12 17 -9 22 5 8 23 -12 23 -27z m160 -78 c0 -18 -2 -19 -15 -9 -15 12 -12
30 6 30 5 0 9 -10 9 -21z m90 -96 c0 -22 -2 -25 -10 -13 -13 20 -13 40 0 40 6
0 10 -12 10 -27z m-2503 -195 c-3 -8 -6 -5 -6 6 -1 11 2 17 5 13 3 -3 4 -12 1
-19z m2497 -107 c67 -44 84 -114 66 -267 -17 -146 -54 -289 -75 -289 -20 0
-16 45 9 98 31 65 37 157 10 157 -12 0 -15 6 -10 26 5 17 2 32 -8 43 -23 26
-44 114 -39 163 3 27 1 48 -5 52 -14 8 -4 36 12 36 6 0 24 -9 40 -19z m-2554
-401 c0 -5 -5 -10 -11 -10 -5 0 -7 5 -4 10 3 6 8 10 11 10 2 0 4 -4 4 -10z
m1715 0 c3 -5 -1 -10 -9 -10 -9 0 -16 5 -16 10 0 6 4 10 9 10 6 0 13 -4 16
-10z m-1452 -97 c-7 -2 -19 -2 -25 0 -7 3 -2 5 12 5 14 0 19 -2 13 -5z m2537
-202 c0 -6 -4 -13 -10 -16 -5 -3 -10 1 -10 9 0 9 5 16 10 16 6 0 10 -4 10 -9z
m-500 -91 c0 -5 -9 -10 -21 -10 -11 0 -17 5 -14 10 3 6 13 10 21 10 8 0 14 -4
14 -10z m335 -80 c4 -6 2 -17 -4 -24 -13 -16 -71 -19 -71 -4 0 5 7 8 15 4 9
-3 19 3 25 14 12 22 25 26 35 10z m-840 -69 c3 -5 1 -12 -5 -16 -5 -3 -10 1
-10 9 0 18 6 21 15 7z m875 -11 c0 -5 -6 -10 -14 -10 -8 0 -16 -7 -20 -15 -3
-8 -12 -15 -21 -15 -22 0 -19 18 5 25 11 3 20 11 20 16 0 5 7 9 15 9 8 0 15
-4 15 -10z m190 -30 c0 -13 -5 -18 -15 -14 -12 5 -13 10 -4 20 15 19 19 18 19
-6z m-1853 -282 c-3 -8 -6 -5 -6 6 -1 11 2 17 5 13 3 -3 4 -12 1 -19z"/>
<path d="M4384 7325 c11 -8 27 -15 35 -15 13 1 12 4 -3 15 -11 8 -27 15 -35
15 -13 -1 -12 -4 3 -15z"/>
<path d="M5110 5960 c0 -11 4 -20 9 -20 5 0 7 9 4 20 -3 11 -7 20 -9 20 -2 0
-4 -9 -4 -20z"/>
<path d="M5147 5884 c-9 -10 2 -24 19 -24 8 0 14 7 14 15 0 15 -21 21 -33 9z"/>
<path d="M5186 5835 c4 -8 8 -15 10 -15 2 0 4 7 4 15 0 8 -4 15 -10 15 -5 0
-7 -7 -4 -15z"/>
<path d="M2470 4910 c0 -5 5 -10 11 -10 5 0 7 5 4 10 -3 6 -8 10 -11 10 -2 0
-4 -4 -4 -10z"/>
<path d="M2504 4881 c4 -5 0 -12 -6 -14 -10 -4 -10 -7 0 -15 7 -5 12 -13 10
-18 -3 -10 4 -14 27 -14 11 0 13 4 6 18 -5 9 -12 25 -15 35 -3 9 -10 17 -16
17 -6 0 -9 -4 -6 -9z"/>
<path d="M5781 4734 c0 -11 3 -14 6 -6 3 7 2 16 -1 19 -3 4 -6 -2 -5 -13z"/>
<path d="M5770 4700 c0 -5 5 -10 10 -10 6 0 10 5 10 10 0 6 -4 10 -10 10 -5 0
-10 -4 -10 -10z"/>
<path d="M5810 4680 c0 -11 7 -20 15 -20 17 0 18 2 9 24 -9 23 -24 20 -24 -4z"/>
<path d="M2685 4530 c-3 -5 -1 -10 4 -10 6 0 11 5 11 10 0 6 -2 10 -4 10 -3 0
-8 -4 -11 -10z"/>
<path d="M5460 4196 c0 -8 5 -18 10 -21 6 -3 10 3 10 14 0 12 -4 21 -10 21 -5
0 -10 -6 -10 -14z"/>
<path d="M5380 4189 c0 -5 5 -7 10 -4 6 3 10 8 10 11 0 2 -4 4 -10 4 -5 0 -10
-5 -10 -11z"/>
<path d="M5640 4190 c0 -5 5 -10 10 -10 6 0 10 5 10 10 0 6 -4 10 -10 10 -5 0
-10 -4 -10 -10z"/>
<path d="M4780 4170 c0 -5 5 -10 11 -10 5 0 7 5 4 10 -3 6 -8 10 -11 10 -2 0
-4 -4 -4 -10z"/>
<path d="M5470 4020 c0 -11 5 -20 10 -20 6 0 10 9 10 20 0 11 -4 20 -10 20 -5
0 -10 -9 -10 -20z"/>
<path d="M5510 4013 c0 -25 15 -38 25 -22 4 6 0 18 -9 27 -15 15 -16 15 -16
-5z"/>
<path d="M3720 4002 c-45 -25 -49 -47 -12 -66 29 -15 42 -15 120 -2 51 9 54
30 7 57 -49 29 -77 31 -115 11z"/>
<path d="M5624 3975 c-1 -15 4 -25 11 -25 21 0 28 19 15 35 -18 21 -25 18 -26
-10z"/>
<path d="M5695 3930 c3 -5 8 -10 11 -10 2 0 4 5 4 10 0 6 -5 10 -11 10 -5 0
-7 -4 -4 -10z"/>
<path d="M5457 3790 c-17 -21 -15 -40 4 -40 6 0 7 4 4 10 -3 5 6 12 20 16 14
3 24 11 22 18 -6 19 -31 17 -50 -4z"/>
<path d="M5647 3566 c-6 -15 1 -26 15 -26 11 0 10 27 -1 34 -5 3 -11 0 -14 -8z"/>
<path d="M4480 3555 c0 -8 4 -15 9 -15 5 0 11 7 15 15 3 9 0 15 -9 15 -8 0
-15 -7 -15 -15z"/>
<path d="M4490 3510 c12 -7 7 -12 -21 -24 -40 -16 -55 -48 -33 -67 8 -6 11
-15 8 -20 -3 -5 4 -24 15 -43 27 -43 26 -50 -5 -42 -17 5 -23 3 -19 -4 7 -11
-67 -15 -78 -3 -15 14 -80 6 -93 -12 -8 -11 -30 -20 -56 -22 -24 -2 -44 -9
-46 -14 -2 -5 -10 -9 -18 -9 -8 0 -11 6 -8 15 4 10 0 15 -15 15 -12 0 -21 -4
-21 -9 0 -5 -26 -22 -57 -37 -50 -23 -63 -25 -103 -18 -44 9 -110 -8 -110 -28
0 -4 -8 -8 -18 -8 -32 0 -34 -13 -4 -26 16 -6 41 -9 56 -7 15 3 53 1 84 -5 31
-6 112 -14 180 -17 141 -7 167 -14 169 -45 2 -28 21 -50 43 -50 25 0 32 -12
13 -25 -14 -10 -15 -21 -7 -66 9 -51 11 -54 42 -57 23 -2 32 -8 32 -21 0 -11
10 -21 23 -25 38 -10 44 -7 39 20 -4 25 -3 26 39 24 70 -3 99 -1 97 8 -6 17
71 72 102 72 4 0 6 -10 3 -22 -4 -15 -2 -20 4 -13 28 28 39 253 14 278 -6 6
-11 23 -11 37 0 14 -9 32 -20 40 -11 8 -20 22 -20 32 0 24 -55 78 -79 78 -11
0 -22 9 -26 20 -4 11 -10 18 -14 15 -4 -2 -13 7 -19 20 -7 14 -17 36 -24 50
-7 15 -20 25 -32 25 -17 0 -18 -2 -6 -10z m0 -54 c0 -3 -4 -8 -10 -11 -5 -3
-10 -1 -10 4 0 6 5 11 10 11 6 0 10 -2 10 -4z"/>
<path d="M5147 2689 c5 -29 4 -31 -16 -24 -23 7 -28 -4 -10 -22 8 -8 7 -11 -2
-10 -38 1 -46 -4 -47 -33 0 -20 4 -30 14 -30 8 0 14 7 14 15 0 18 16 20 26 3
5 -7 3 -8 -6 -3 -10 6 -12 4 -7 -8 4 -12 1 -17 -9 -17 -9 0 -14 -6 -11 -13 7
-20 -4 -33 -38 -44 -18 -6 -31 -17 -31 -29 -1 -10 -2 -25 -3 -31 -1 -7 -8 -13
-16 -13 -8 0 -19 -9 -25 -20 -6 -11 -17 -20 -25 -20 -8 0 -21 -13 -29 -29 -16
-31 -40 -45 -68 -42 -10 1 -18 -3 -18 -8 0 -6 -9 -11 -20 -11 -13 0 -20 7 -20
20 0 24 -13 26 -30 5 -7 -8 -18 -15 -24 -15 -17 0 -89 -40 -103 -57 -9 -11
-15 -12 -30 -2 -17 10 -24 7 -49 -15 -16 -15 -36 -34 -45 -42 -10 -9 -26 -12
-46 -8 -26 5 -37 0 -70 -30 -29 -25 -45 -34 -61 -29 -13 3 -22 1 -22 -6 0 -7
5 -9 12 -5 7 4 8 3 4 -5 -4 -6 -11 -9 -16 -6 -5 3 -11 1 -15 -5 -3 -6 -22 -17
-42 -25 -19 -8 -37 -24 -40 -35 -3 -11 -13 -20 -22 -20 -20 -1 -53 -25 -44
-33 3 -4 -6 -7 -20 -7 -15 0 -27 -5 -27 -11 0 -9 -23 -10 -81 -5 -48 4 -86 3
-93 -3 -7 -6 -28 -6 -58 0 -37 8 -53 7 -77 -5 -16 -9 -41 -16 -55 -16 -14 0
-36 -4 -51 -10 -19 -7 -24 -7 -19 1 5 9 -1 10 -22 5 -36 -8 -38 -8 -97 2 -53
10 -100 5 -91 -9 3 -5 0 -9 -5 -9 -6 0 -11 -4 -11 -10 0 -5 11 -10 25 -10 18
0 25 -5 25 -20 0 -13 7 -20 20 -20 11 0 20 -4 20 -8 0 -13 -47 -35 -59 -28 -6
4 -11 1 -11 -7 0 -8 7 -17 15 -21 21 -8 19 -20 -7 -31 -31 -14 -34 -33 -6 -44
13 -5 30 -18 38 -30 9 -13 25 -21 42 -21 15 0 29 -4 33 -10 4 -6 16 -5 33 1
23 9 29 7 41 -10 7 -12 24 -21 37 -21 12 0 29 -6 36 -12 24 -23 58 -39 58 -28
0 5 5 10 10 10 6 0 9 -5 8 -12 -2 -7 28 -16 81 -25 47 -7 92 -19 100 -27 9 -7
33 -16 54 -20 20 -4 37 -11 37 -16 0 -5 16 -9 36 -8 20 1 39 -4 43 -10 4 -7
25 -9 53 -7 28 3 57 -1 72 -9 15 -7 36 -12 49 -11 12 1 33 3 47 4 20 1 22 3
10 11 -30 19 -2 19 38 0 67 -33 92 -41 92 -30 0 6 9 10 20 10 17 0 19 -4 11
-17 -5 -10 -11 -31 -12 -48 -4 -26 -1 -30 24 -33 24 -3 26 -6 16 -18 -10 -13
-10 -17 0 -23 10 -6 4 -17 -21 -42 -19 -19 -37 -42 -41 -52 -3 -9 -10 -17 -15
-17 -5 0 -12 -14 -16 -31 -10 -52 -82 -99 -181 -119 -85 -18 -120 -30 -214
-75 -53 -26 -105 -51 -116 -55 -11 -5 -27 -11 -35 -14 -8 -4 -28 -15 -45 -26
-16 -11 -50 -29 -75 -40 -58 -26 -125 -59 -171 -82 -36 -17 -37 -17 -62 2 -14
11 -31 20 -39 20 -7 0 -36 17 -64 39 -59 44 -272 162 -327 180 -20 7 -37 16
-37 21 0 5 -10 12 -22 16 -86 27 -205 160 -213 237 -1 11 -6 22 -11 25 -6 4
-16 27 -23 52 -7 25 -21 60 -32 78 -10 18 -19 39 -19 46 0 7 -11 33 -23 57
-13 24 -26 55 -29 69 -3 14 -15 61 -28 105 -16 60 -23 123 -29 250 -6 134 -11
177 -25 205 -29 54 -37 63 -48 48 -7 -10 -11 -10 -15 -1 -7 19 -54 -37 -48
-57 3 -10 -5 -24 -22 -37 -16 -11 -36 -42 -46 -69 -34 -94 -39 -97 -168 -100
-63 -1 -116 -3 -119 -4 -3 -1 -24 -1 -46 0 -24 1 -47 -5 -55 -13 -9 -9 -22
-11 -34 -6 -28 11 -43 10 -25 -1 11 -7 9 -11 -13 -19 -16 -6 -37 -11 -47 -11
-10 0 -22 -5 -25 -11 -4 -6 -13 -8 -21 -5 -8 3 -14 -1 -14 -8 0 -13 -23 -29
-45 -31 -5 0 -30 -14 -54 -29 -29 -19 -62 -30 -95 -33 -28 -2 -60 -5 -71 -6
-19 -2 -32 -10 -74 -48 -23 -21 -71 -30 -94 -18 -13 8 -23 3 -45 -19 -20 -23
-39 -31 -76 -35 -36 -4 -54 -11 -67 -28 -14 -19 -20 -22 -30 -11 -7 6 -16 12
-20 12 -13 0 -58 -48 -51 -55 4 -5 -3 -5 -16 -2 -12 3 -22 1 -22 -5 0 -5 -5
-6 -11 -2 -6 3 -15 0 -20 -7 -7 -12 -9 -12 -9 0 0 10 -6 8 -21 -8 -13 -14 -27
-20 -40 -16 -11 4 -19 2 -19 -4 0 -6 -7 -11 -15 -11 -7 0 -18 -7 -23 -16 -6
-11 -17 -15 -32 -11 -12 3 -38 -2 -57 -11 -30 -14 -35 -14 -44 -2 -8 13 -11
12 -24 -4 -11 -14 -28 -19 -75 -20 -33 0 -60 -4 -60 -9 0 -4 -8 -3 -19 2 -10
6 -22 7 -26 3 -7 -7 -12 -8 -41 -11 -8 0 -13 -5 -10 -10 3 -5 -8 -11 -25 -15
-17 -3 -28 -10 -24 -16 3 -6 -4 -10 -18 -10 -14 0 -30 -7 -37 -15 -7 -8 -16
-12 -21 -9 -5 3 -9 0 -9 -6 0 -8 -7 -9 -17 -5 -10 4 -40 9 -68 10 -27 1 -40 0
-29 -2 l22 -4 -22 -23 c-11 -13 -32 -26 -46 -30 -19 -6 -21 -5 -10 3 13 9 12
11 -5 11 -26 0 -39 -11 -43 -35 -5 -28 -20 -35 -64 -30 -27 3 -40 -1 -47 -13
-6 -11 -21 -16 -47 -15 -20 1 -32 -2 -25 -6 9 -6 8 -11 -4 -21 -8 -7 -15 -19
-15 -26 0 -8 -5 -14 -11 -14 -6 0 -9 7 -5 15 3 8 1 15 -5 15 -7 0 -9 -13 -7
-31 4 -26 2 -30 -13 -26 -18 5 -18 -20 -19 -559 l0 -564 4000 0 4000 0 0 340
0 340 -37 19 c-21 10 -52 22 -70 25 -17 4 -50 21 -73 37 -22 16 -64 39 -92 50
-63 25 -136 67 -146 84 -6 12 -58 24 -104 25 -10 0 -18 7 -18 15 0 8 -9 15
-20 15 -11 0 -20 4 -20 9 0 16 -69 62 -117 78 -88 29 -143 58 -149 75 -3 10
-10 18 -15 18 -5 0 -9 7 -9 16 0 12 -6 15 -26 10 -14 -4 -32 -2 -40 4 -7 7
-19 8 -25 4 -8 -4 -9 -3 -5 5 9 13 -18 43 -36 40 -13 -2 -26 2 -76 22 -13 5
-22 15 -20 21 4 12 -55 48 -79 48 -7 0 -13 9 -13 19 0 11 -5 23 -10 26 -6 4
-8 10 -5 15 7 11 -31 23 -45 15 -6 -4 -23 -4 -37 0 -22 5 -25 10 -19 35 4 22
2 30 -9 30 -9 0 -12 -6 -9 -15 4 -8 1 -15 -5 -15 -7 0 -14 7 -17 15 -4 8 -13
15 -21 15 -8 0 -11 -4 -8 -10 3 -5 1 -10 -4 -10 -6 0 -11 7 -11 15 0 18 -14
19 -43 4 -12 -7 -19 -8 -14 -4 4 5 -4 21 -19 36 -14 14 -27 35 -28 45 -2 14
-12 19 -37 19 -22 0 -35 5 -37 15 -4 21 -70 49 -112 49 -44 -1 -114 27 -105
41 4 6 -4 21 -16 34 -19 20 -26 22 -41 12 -16 -9 -23 -6 -48 24 -24 28 -30 31
-30 16 0 -19 0 -19 -13 -1 -8 10 -19 15 -25 11 -7 -4 -12 -2 -12 4 0 6 7 13
15 16 24 9 18 34 -8 34 -13 0 -27 4 -32 9 -6 5 -21 11 -35 13 -14 2 -24 9 -23
15 3 12 -67 73 -83 73 -5 0 -19 11 -32 24 -16 17 -19 26 -10 28 10 4 10 8 1
20 -7 8 -10 18 -6 21 3 4 -1 7 -10 7 -9 0 -17 -4 -17 -10 0 -5 -8 -10 -18 -10
-21 0 -44 34 -36 55 5 11 -1 15 -26 15 -21 0 -30 4 -28 12 5 14 -9 31 -34 40
-10 4 -15 14 -11 26 2 11 -3 34 -12 51 -8 17 -13 36 -10 41 3 5 2 17 -3 27 -6
10 -15 30 -22 45 -7 15 -26 33 -42 40 -41 18 -55 59 -52 147 2 55 7 77 18 83
22 12 20 25 -6 31 -18 5 -19 8 -8 22 11 13 10 15 -4 9 -9 -3 -16 -10 -16 -14
0 -4 -28 -11 -62 -14 -85 -10 -138 -26 -138 -43 0 -8 -5 -11 -11 -7 -8 4 -8 9
0 17 18 18 13 27 -15 27 -35 0 -64 17 -58 34 3 8 1 17 -5 21 -6 3 -11 16 -11
28 0 12 -9 28 -20 35 -18 11 -19 10 -13 -19z m-3327 -909 c0 -5 -4 -10 -10
-10 -5 0 -10 5 -10 10 0 6 5 10 10 10 6 0 10 -4 10 -10z m2505 -300 c3 -5 -1
-10 -9 -10 -9 0 -16 5 -16 10 0 6 4 10 9 10 6 0 13 -4 16 -10z m2552 -216 c-3
-3 -12 -4 -19 -1 -8 3 -5 6 6 6 11 1 17 -2 13 -5z"/>
<path d="M5486 2681 c-4 -7 -5 -15 -2 -18 9 -9 19 4 14 18 -4 11 -6 11 -12 0z"/>
<path d="M3390 1740 c0 -5 7 -10 16 -10 8 0 12 5 9 10 -3 6 -10 10 -16 10 -5
0 -9 -4 -9 -10z"/>
<path d="M1522 1725 c-13 -7 -19 -15 -14 -19 5 -3 21 3 33 14 27 22 16 25 -19
5z"/>
<path d="M898 1493 c7 -3 16 -2 19 1 4 3 -2 6 -13 5 -11 0 -14 -3 -6 -6z"/>
<path d="M798 1473 c6 -2 18 -2 25 0 6 3 1 5 -13 5 -14 0 -19 -2 -12 -5z"/>
<path d="M4220 1436 c0 -21 20 -30 33 -17 9 9 8 14 -3 21 -21 14 -30 12 -30
-4z"/>
<path d="M310 1340 c-8 -5 -10 -10 -5 -10 6 0 17 5 25 10 8 5 11 10 5 10 -5 0
-17 -5 -25 -10z"/>
<path d="M227 1293 c-3 -5 -2 -15 2 -22 7 -10 10 -10 16 -1 4 6 3 16 -3 22 -5
5 -12 6 -15 1z"/>
</g>
</svg>
